HIERARCHY
ROOT Hips
{
  OFFSET 53.3369 95.6915 11.2854
  CHANNELS 6 Xposition Yposition Zposition Zrotation Xrotation Yrotation
  JOINT spine
  {
    OFFSET 0 7.96568 0.458067
    CHANNELS 3 Zrotation Xrotation Yrotation
    JOINT spine1
    {
      OFFSET 0 10.2431 0
      CHANNELS 3 Zrotation Xrotation Yrotation
      JOINT spine2
      {
        OFFSET 0 9.81475 0
        CHANNELS 3 Zrotation Xrotation Yrotation
        JOINT Neck
        {
          OFFSET 0 25.1986 1.20138
          CHANNELS 3 Zrotation Xrotation Yrotation
          JOINT Head
          {
            OFFSET 0 7.61315 0
            CHANNELS 3 Zrotation Xrotation Yrotation
            End Site
            {
              OFFSET 0 18.4281 -6.07733
            }
          }
        }
        JOINT RightShoulder
        {
          OFFSET -4.1327 10.5992 -0.575451
          CHANNELS 3 Zrotation Xrotation Yrotation
          JOINT RightArm
          {
            OFFSET 0 13.9018 0
            CHANNELS 3 Zrotation Xrotation Yrotation
            JOINT RightArmRoll
            {
              OFFSET 0 7.01788 0
              CHANNELS 3 Zrotation Xrotation Yrotation
              JOINT RightForeArm
              {
                OFFSET 0 20.4406 0
                CHANNELS 3 Zrotation Xrotation Yrotation
                JOINT RightForeArmRoll
                {
                  OFFSET 0 7.87515 0
                  CHANNELS 3 Zrotation Xrotation Yrotation
                  JOINT RightHand
                  {
                    OFFSET 0 15.8037 0
                    CHANNELS 3 Zrotation Xrotation Yrotation
                    End Site
                    {
                      OFFSET 0 0 0
                    }
                  }
                }
              }
            }
          }
        }
        JOINT LeftShoulder
        {
          OFFSET 4.1327 10.5992 -0.575451
          CHANNELS 3 Zrotation Xrotation Yrotation
          JOINT LeftArm
          {
            OFFSET 0 13.9018 0
            CHANNELS 3 Zrotation Xrotation Yrotation
            JOINT LeftArmRoll
            {
              OFFSET 0 7.01789 0
              CHANNELS 3 Zrotation Xrotation Yrotation
              JOINT LeftForeArm
              {
                OFFSET 0 20.4406 0
                CHANNELS 3 Zrotation Xrotation Yrotation
                JOINT LeftForeArmRoll
                {
                  OFFSET 0 7.87515 0
                  CHANNELS 3 Zrotation Xrotation Yrotation
                  JOINT LeftHand
                  {
                    OFFSET 0 15.8037 0
                    CHANNELS 3 Zrotation Xrotation Yrotation
                    End Site
                    {
                      OFFSET 0 0 0
                    }
                  }
                }
              }
            }
          }
        }
      }
    }
  }
  JOINT RightUpLeg
  {
    OFFSET -7.06048 -1.2947 -1.08609
    CHANNELS 3 Zrotation Xrotation Yrotation
    JOINT RightUpLegRoll
    {
      OFFSET 0 18.5308 0
      CHANNELS 3 Zrotation Xrotation Yrotation
      JOINT RightLeg
      {
        OFFSET 0 -22.9476 0
        CHANNELS 3 Zrotation Xrotation Yrotation
        JOINT RightLegRoll
        {
          OFFSET 0 23.0226 0
          CHANNELS 3 Zrotation Xrotation Yrotation
          JOINT RightFoot
          {
            OFFSET 0 19.1625 0
            CHANNELS 3 Zrotation Xrotation Yrotation
            JOINT RightToeBase
            {
              OFFSET 0 16.0188 0
              CHANNELS 3 Zrotation Xrotation Yrotation
              End Site
              {
                OFFSET 0.00678979 7.75782 -0.894206
              }
            }
          }
        }
      }
    }
  }
  JOINT LeftUpLeg
  {
    OFFSET 7.06048 -1.2947 -1.08609
    CHANNELS 3 Zrotation Xrotation Yrotation
    JOINT LeftUpLegRoll
    {
      OFFSET 0 18.5309 0
      CHANNELS 3 Zrotation Xrotation Yrotation
      JOINT LeftLeg
      {
        OFFSET 0 22.9475 0
        CHANNELS 3 Zrotation Xrotation Yrotation
        JOINT LeftLegRoll
        {
          OFFSET 0 23.2355 0
          CHANNELS 3 Zrotation Xrotation Yrotation
          JOINT LeftFoot
          {
            OFFSET 0 18.9496 0
            CHANNELS 3 Zrotation Xrotation Yrotation
            JOINT LeftToeBase
            {
              OFFSET 0 16.0188 0
              CHANNELS 3 Zrotation Xrotation Yrotation
              End Site
              {
                OFFSET -0.0304289 7.75781 -0.894207
              }
            }
          }
        }
      }
    }
  }
}
MOTION
Frames: 4
Frame Time: 0.00208333
54.1365 95.6012 12.6902 1.82779 0.29373 3.54878 -0.271218 -2.89871 0.0878317 -0.52201 -1.79537 0.197425 -0.524278 -0.150339 0.206138 -6.44796 32.76 0.453228 7.69774 -3.46387 -1.30835 2.55118 -15.7634 -16.0545 -8.55621 43.6627 105.102 -6.70307e-006 -4.18201e-007 -2.36966e-006 -19.4622 26.2118 11.9659 1.32041e-006 -7.34319e-007 -3.00812 8.03059 -4.95134 0.697614 -12.4082 -15.2808 13.6819 18.5114 41.0796 -101.69 3.18055e-015 -3.97569e-015 -0 16.3471 22.4832 -8.575 1.7085e-005 1.50832e-006 3.01081 -8.03098 -4.95134 -0.697582 171.017 -0.198074 0.190837 180 7.01545e-015 178.914 178.031 7.74889 179.579 1.37764e-006 -5.90568e-006 0.220585 -21.3551 70.9014 22.3221 8.14579 25.3702 -3.29594 -176.019 -0.741577 1.92906 4.5067e-006 -1.99009e-005 -1.12342 -1.56124 -4.05034 0.0499376 7.76093e-007 -3.05258e-006 -0.0399451 18.8137 67.9615 -19.5 -8.13643 25.2335 3.48653 
54.1508 95.5974 12.6563 1.82298 0.268357 3.56474 -0.271213 -2.89682 0.0885349 -0.522783 -1.79194 0.198828 -0.525068 -0.146913 0.207554 -6.41982 32.7298 0.437267 7.68545 -3.40279 -1.31622 2.72231 -15.7511 -15.9993 -8.37973 43.7042 104.9 -6.70307e-006 -4.18201e-007 -2.36966e-006 -19.4117 26.1368 11.9079 1.32041e-006 -7.34319e-007 -3.00812 8.03059 -4.95134 0.697614 -12.5594 -15.24 13.6015 18.3485 41.147 -101.501 6.36111e-015 -3.26007e-014 -1.11319e-014 16.261 22.4316 -8.51598 1.7085e-005 1.50832e-006 3.01079 -8.03098 -4.95134 -0.697582 171.026 -0.220507 0.189345 180 7.01545e-015 178.913 178.03 7.7649 179.579 1.37764e-006 -5.90568e-006 0.221367 -21.3657 70.9108 22.3327 8.14588 25.3715 -3.2947 -176.011 -0.760931 1.92474 4.5067e-006 -1.99009e-005 -1.12427 -1.5573 -4.05766 0.0503745 7.76093e-007 -3.05258e-006 -0.0399246 18.8131 67.9598 -19.4988 -8.13649 25.2344 3.48537 
54.1432 95.601 12.6682 1.81809 0.24281 3.58078 -0.271284 -2.89488 0.0891516 -0.523845 -1.78848 0.200062 -0.526146 -0.143446 0.208805 -6.38367 32.6978 0.418054 7.66552 -3.33787 -1.32504 2.89889 -15.7414 -15.9477 -8.21055 43.7519 104.711 -6.70307e-006 -4.18201e-007 -2.36966e-006 -19.3665 26.0442 11.8489 1.32041e-006 -7.34318e-007 -3.00812 8.03059 -4.95134 0.697614 -12.709 -15.1984 13.5204 18.177 41.2178 -101.31 1.90833e-014 5.56597e-015 -7.95139e-015 16.176 22.3801 -8.45733 1.7085e-005 1.50832e-006 3.01076 -8.03098 -4.95134 -0.697582 171.036 -0.241819 0.187699 180 7.01544e-015 178.912 178.029 7.78367 179.579 1.37764e-006 -5.90568e-006 0.222218 -21.3781 70.9218 22.3453 8.14597 25.3727 -3.29354 -176.004 -0.780971 1.92147 4.5067e-006 -1.99009e-005 -1.12513 -1.5521 -4.06451 0.0509172 7.76093e-007 -3.05258e-006 -0.0399044 18.8128 67.9583 -19.4977 -8.13655 25.2353 3.48415 
54.1327 95.5814 12.695 1.81311 0.217162 3.5968 -0.271419 -2.8929 0.0896759 -0.525148 -1.78501 0.201115 -0.527461 -0.139977 0.20988 -6.34105 32.6645 0.396282 7.63942 -3.26996 -1.33458 3.08101 -15.7338 -15.8987 -8.0475 43.8046 104.533 -6.70307e-006 -4.18201e-007 -2.36966e-006 -19.3257 25.9362 11.7888 1.32041e-006 -7.34319e-007 -3.00812 8.03059 -4.95134 0.697614 -12.8578 -15.1562 13.4387 17.9978 41.2914 -101.117 -3.26629e-030 -2.94201e-014 -6.36111e-015 16.0918 22.3282 -8.39885 1.7085e-005 1.50832e-006 3.01074 -8.03098 -4.95134 -0.697582 171.046 -0.262081 0.185912 180 7.01544e-015 178.911 178.028 7.80485 179.579 1.37764e-006 -5.90568e-006 0.223123 -21.3921 70.9342 22.3595 8.14606 25.3741 -3.29244 -175.998 -0.801568 1.91907 4.5067e-006 -1.99009e-005 -1.12599 -1.54585 -4.07094 0.0515513 7.76093e-007 -3.05258e-006 -0.0398846 18.8125 67.9568 -19.4968 -8.13661 25.2363 3.48286 
